<?xml version="1.0" ?><!DOCTYPE svg  PUBLIC '-//W3C//DTD SVG 1.1//EN'  'http://www.w3.org/Graphics/SVG/1.1/DTD/svg11.dtd'><svg fill="#ffffff" enable-background="new 0 0 512 512" height="512px" id="Layer_1" version="1.1" viewBox="0 0 512 512" width="512px" xml:space="preserve" xmlns="http://www.w3.org/2000/svg" xmlns:xlink="http://www.w3.org/1999/xlink"><g><path d="M77.744,101.496l33.005,369.461L258.909,512l148.29-41.022l33.057-369.482H77.744z M368.648,222.315   l-4.131,46.403l-12.453,139.154l-93.075,25.733l-0.062,0.021l-93.014-25.754l-6.491-72.783h45.571l3.377,37.755l50.568,13.646   l0.049-0.017l50.628-13.652l6.904-62.882l-159.276,0.414l-4.5-43l167.613-1.955l3.387-46.045l-175.5,0.5l-2.964-42.827h113.709   h113.718L368.648,222.315z" fill="#ffffff"/><polygon fill="#ffffff" points="77.744,101.496 77.744,101.496 77.744,101.495  "/><polygon fill="#ffffff" points="205.313,63.114 176.229,63.114 176.3,19.488 205.313,19.488 205.313,3.205 159.945,3.205    159.945,19.488 160.017,19.488 159.946,63.114 159.945,63.114 159.945,79.397 205.313,79.397  "/><polygon fill="#ffffff" points="281.717,62.958 245.629,19.394 279.369,19.394 279.369,3.205 221.274,3.205 221.274,18.666    257.523,62.229 218.927,62.229 218.927,78.418 281.717,78.418  "/><polygon fill="#ffffff" points="357.055,62.958 320.967,19.394 354.707,19.394 354.707,3.205 296.613,3.205 296.613,18.666    332.861,62.229 294.266,62.229 294.266,78.418 357.055,78.418  "/></g></svg>
